HIERARCHY
ROOT Hips
{
  OFFSET 0.000000 0.000000 0.000000
  CHANNELS 6 Xposition Yposition Zposition Zrotation Yrotation Xrotation
  JOINT Spine
  {
    OFFSET -0.031383 2.039826 -0.231057
    CHANNELS 3 Zrotation Yrotation Xrotation
    JOINT Spine1
    {
      OFFSET -0.003250 2.062381 -0.068782
      CHANNELS 3 Zrotation Yrotation Xrotation
      JOINT Spine2
      {
        OFFSET 0.012045 2.084311 0.039502
        CHANNELS 3 Zrotation Yrotation Xrotation
        JOINT Neck
        {
          OFFSET -0.000019 1.753182 0.180902
          CHANNELS 3 Zrotation Yrotation Xrotation
          JOINT Head
          {
            OFFSET 0.025540 1.785965 -0.106842
            CHANNELS 3 Zrotation Yrotation Xrotation
            End Site
            {
              OFFSET 0 0 0
            }
          }
        }
        JOINT LeftShoulder
        {
          OFFSET 3.096568 1.335974 -0.044144
          CHANNELS 3 Zrotation Yrotation Xrotation
          JOINT LeftArm
          {
            OFFSET 5.342980 -0.000000 -0.000000
            CHANNELS 3 Zrotation Yrotation Xrotation
            JOINT LeftForeArm
            {
              OFFSET 3.672620 -0.000000 -0.000000
              CHANNELS 3 Zrotation Yrotation Xrotation
              JOINT LeftHand
              {
                OFFSET 0.599298 -0.000000 -0.000000
                CHANNELS 3 Zrotation Yrotation Xrotation
                JOINT LeftHandIndex1
                {
                  OFFSET 0.483170 -0.000000 -0.000000
                  CHANNELS 3 Zrotation Yrotation Xrotation
                  End Site
                  {
                    OFFSET 0 0 0
                  }
                }
              }
            }
          }
        }
        JOINT RightShoulder
        {
          OFFSET -3.164597 1.322727 -0.233822
          CHANNELS 3 Zrotation Yrotation Xrotation
          JOINT RightArm
          {
            OFFSET -5.549667 -0.018343 0.033481
            CHANNELS 3 Zrotation Yrotation Xrotation
            JOINT RightForeArm
            {
              OFFSET -3.694010 -0.000000 0.000000
              CHANNELS 3 Zrotation Yrotation Xrotation
              JOINT RightHand
              {
                OFFSET -0.638113 -0.000000 0.000000
                CHANNELS 3 Zrotation Yrotation Xrotation
                JOINT RightHandIndex1
                {
                  OFFSET -0.514463 -0.000000 0.000000
                  CHANNELS 3 Zrotation Yrotation Xrotation
                  End Site
                  {
                    OFFSET 0 0 0
                  }
                }
              }
            }
          }
        }
      }
    }
  }
  JOINT LeftUpLeg
  {
    OFFSET 2.630390 -7.226944 0.000000
    CHANNELS 3 Zrotation Yrotation Xrotation
    JOINT LeftLeg
    {
      OFFSET 2.706743 -7.436721 0.000000
      CHANNELS 3 Zrotation Yrotation Xrotation
      JOINT LeftFoot
      {
        OFFSET 0.150663 -0.413945 2.090267
        CHANNELS 3 Zrotation Yrotation Xrotation
        JOINT LeftToeBase
        {
          OFFSET 0.000000 -0.000000 1.075180
          CHANNELS 3 Zrotation Yrotation Xrotation
          End Site
          {
            OFFSET 0 0 0
          }
        }
      }
    }
  }
  JOINT RightUpLeg
  {
    OFFSET -2.570232 -7.061661 0.000000
    CHANNELS 3 Zrotation Yrotation Xrotation
    JOINT RightLeg
    {
      OFFSET -2.764606 -7.595698 0.000000
      CHANNELS 3 Zrotation Yrotation Xrotation
      JOINT RightFoot
      {
        OFFSET -0.241754 -0.647854 2.197187
        CHANNELS 3 Zrotation Yrotation Xrotation
        JOINT RightToeBase
        {
          OFFSET -0.000000 -0.000000 1.148030
          CHANNELS 3 Zrotation Yrotation Xrotation
          End Site
          {
            OFFSET 0 0 0
          }
        }
      }
    }
  }
}
MOTION
Frames: 5
Frame Time: 0.00833333
9.054490 16.292600 15.440600 171.887000 -7.675180 -155.224000 -16.725900 6.893560 -65.802900 0.000000 0.000000 43.992300 -3.945930 0.000000 1.856070 0.000000 0.000000 -13.467800 -2.039320 -6.221010 -67.770600 0.000000 0.000000 76.560500 -0.801814 0.000000 -13.161900 0.000000 0.000000 -19.695400 4.292160 3.446280 38.104700 1.915670 3.686640 8.778440 -1.490780 0.662699 -8.744800 -5.293060 -3.614870 -12.262300 0.529498 -3.346520 -1.974410 0.000000 0.000000 0.000000 75.755700 -45.489000 28.732600 0.000000 0.000000 75.323000 59.496100 0.000000 -34.181100 0.000000 0.000000 7.125020 0.000000 0.000000 0.000000 -78.306200 -8.622080 67.747100 0.000000 0.000000 92.412300 37.397700 0.000000 -29.070500 0.000000 0.000000 7.125020
8.947980 16.298700 15.401900 172.224000 -7.865640 -155.085000 -16.894600 6.980040 -66.655600 0.000000 0.000000 45.269300 -4.175340 0.000000 1.670790 0.000000 0.000000 -10.844400 -1.864860 -6.929770 -67.598900 0.000000 0.000000 76.538700 0.429782 0.000000 -13.200500 0.000000 0.000000 -18.268800 4.987960 3.066340 38.075500 2.013620 3.515090 8.639390 -1.681430 0.579203 -8.850030 -5.545620 -3.542220 -12.010400 0.596379 -3.283580 -2.051140 -0.000000 -0.000000 0.000000 76.127400 -45.779200 27.985600 0.000000 0.000000 75.744800 57.909300 0.000000 -34.876300 0.000000 0.000000 7.125020 -0.000000 -0.000000 0.000000 -77.606800 -8.430350 67.639300 0.000000 0.000000 92.468500 38.087100 0.000000 -30.173400 0.000000 0.000000 7.125020
8.852790 16.249900 15.352700 172.592000 -7.109560 -154.915000 -17.273700 7.836210 -67.619500 0.000000 0.000000 46.923500 -4.450850 0.000000 1.074580 0.000000 0.000000 -10.547300 -1.960530 -7.119690 -68.130300 0.000000 0.000000 76.606600 1.667310 0.000000 -13.019300 0.000000 0.000000 -17.265800 4.894940 3.285180 38.075400 1.916690 3.754930 8.590500 -1.830850 0.693533 -8.893800 -5.255650 -3.374880 -12.027100 0.479939 -3.223050 -2.109740 -0.000000 -0.000000 0.000000 75.979400 -46.294300 27.751100 0.000000 0.000000 76.411000 57.149700 0.000000 -34.850900 0.000000 0.000000 7.125020 -0.000000 -0.000000 0.000000 -77.285200 -8.525630 67.827900 0.000000 0.000000 92.439000 39.292300 0.000000 -30.826200 0.000000 0.000000 7.125020
8.760780 16.200000 15.296100 172.503000 -6.348410 -154.838000 -18.122800 8.571440 -68.281300 0.000000 0.000000 48.295500 -4.845580 0.000000 0.357886 0.000000 0.000000 -10.766000 -2.530970 -7.541610 -68.258900 0.000000 0.000000 76.444000 2.955690 0.000000 -12.920000 0.000000 0.000000 -16.031500 4.507770 3.533800 38.276100 1.795810 3.922090 8.527070 -1.829890 0.771247 -9.048300 -5.298650 -3.332320 -12.131100 0.477387 -3.182610 -2.051420 0.000000 0.000000 0.000000 76.321500 -46.950700 27.052600 0.000000 0.000000 77.283500 57.724500 0.000000 -35.165200 0.000000 0.000000 7.125020 0.000000 0.000000 0.000000 -76.804000 -8.683710 67.953900 0.000000 0.000000 92.471500 39.119200 0.000000 -30.723000 0.000000 0.000000 7.125020
8.669650 16.200600 15.246200 172.499000 -5.697100 -154.743000 -18.465900 8.825280 -68.674700 0.000000 0.000000 49.406100 -4.758890 0.000000 -0.584241 0.000000 0.000000 -11.268800 -2.951450 -7.905840 -68.093900 0.000000 0.000000 75.989300 4.092990 0.000000 -12.859700 0.000000 0.000000 -16.554900 4.165920 3.662640 38.350500 1.775110 3.969150 8.435660 -1.697850 0.794547 -9.200630 -5.622600 -3.252430 -11.898800 0.566268 -3.097170 -2.094220 -0.000000 0.000000 0.000000 76.643900 -47.205500 26.467500 0.000000 0.000000 77.803700 58.309300 0.000000 -35.664100 0.000000 0.000000 7.125020 -0.000000 0.000000 0.000000 -76.194400 -8.403550 68.100200 0.000000 0.000000 92.377400 39.946700 0.000000 -31.681600 0.000000 0.000000 7.125020
